<svg id="图层_1" data-name="图层 1" xmlns="http://www.w3.org/2000/svg" viewBox="0 0 49.05 52.47"><defs><style>.cls-1{fill:none;stroke:#91d2f2;stroke-linecap:round;stroke-miterlimit:10;stroke-width:5px;}.cls-2{fill:#39ace5;fill-rule:evenodd;}</style></defs><title>未标题-1</title><path class="cls-1" d="M327.88,218a14.51,14.51,0,0,0-14.32,0l-8.42,4.8A14.11,14.11,0,0,0,298,235v9.59a14.12,14.12,0,0,0,7.16,12.25l8.42,4.79a14.46,14.46,0,0,0,14.32,0l7-4.79A14.12,14.12,0,0,0,342,244.62V235" transform="translate(-295.48 -213.59)"/><path class="cls-2" d="M335.8,225.29a24.83,24.83,0,0,0-6.62-1c-3.71-.14-5.84,0-7.17.43s-5.67,1.75-6.94,5.3,1.92,8.73,1.92,8.73,9.79-1.23,16-5c5.58-3.4,7-6.87,7-6.87A43.13,43.13,0,0,0,335.8,225.29Zm-18.71,14.6s-2.7,6.87-3,11.63a11.9,11.9,0,0,0,1.82,7.62,16.45,16.45,0,0,0,8.74-15.25C322.81,239.21,317.09,239.89,317.09,239.89Zm-.75-.82a50,50,0,0,0-8.06-6.84,11.49,11.49,0,0,0-5.31-1.52,17.39,17.39,0,0,0,1.82,7.62c1.61,2.85,3.58,4.48,5.15,4.66a4.15,4.15,0,0,0,3.53-.77A10,10,0,0,0,316.34,239.07Z" transform="translate(-295.48 -213.59)"/></svg>